<?xml version="1.0" encoding="UTF-8"?>
<!DOCTYPE svg PUBLIC "-//W3C//DTD SVG 1.1//EN" "http://www.w3.org/Graphics/SVG/1.1/DTD/svg11.dtd">
<svg xmlns="http://www.w3.org/2000/svg" version="1.1" width="48px" height="48px" style="shape-rendering:geometricPrecision; text-rendering:geometricPrecision; image-rendering:optimizeQuality; fill-rule:evenodd; clip-rule:evenodd" xmlns:xlink="http://www.w3.org/1999/xlink">
<g><path style="opacity:0.75" fill="#caeb61" d="M 25.5,-0.5 C 27.5,-0.5 29.5,-0.5 31.5,-0.5C 34.771,2.26781 37.9377,5.26781 41,8.5C 43.4834,12.4761 45.65,16.4761 47.5,20.5C 47.5,21.5 47.5,22.5 47.5,23.5C 44.858,23.5123 43.5246,22.179 43.5,19.5C 42.7974,17.2843 41.4641,15.451 39.5,14C 33.6307,9.79368 27.2974,6.62701 20.5,4.5C 21.973,2.60534 23.6397,0.938669 25.5,-0.5 Z"/></g>
<g><path style="opacity:0.921" fill="#78ba16" d="M 20.5,4.5 C 27.2974,6.62701 33.6307,9.79368 39.5,14C 41.4641,15.451 42.7974,17.2843 43.5,19.5C 36.055,11.9446 27.055,9.44464 16.5,12C 14.6803,12.2004 13.347,13.0337 12.5,14.5C 10.6656,15.494 8.99891,15.494 7.5,14.5C 7.46698,11.164 8.13365,7.9973 9.5,5C 13.1516,4.50137 16.8183,4.3347 20.5,4.5 Z"/></g>
<g><path style="opacity:0.881" fill="#23540f" d="M 28.5,12.5 C 27.8902,13.391 27.5569,14.391 27.5,15.5C 27.1667,15.5 26.8333,15.5 26.5,15.5C 25.609,16.1098 24.609,16.4431 23.5,16.5C 22.391,16.5569 21.391,16.8902 20.5,17.5C 19.1224,18.5451 18.1224,19.8784 17.5,21.5C 15.9519,21.8212 15.2852,22.8212 15.5,24.5C 15.4431,25.609 15.1098,26.609 14.5,27.5C 14.5,28.8333 14.5,30.1667 14.5,31.5C 15.5,31.5 16.5,31.5 17.5,31.5C 17.5,32.1667 17.5,32.8333 17.5,33.5C 16.8333,33.5 16.5,33.8333 16.5,34.5C 15.5655,35.5676 15.2322,36.901 15.5,38.5C 16.8333,38.5 18.1667,38.5 19.5,38.5C 19.2627,39.791 19.596,40.791 20.5,41.5C 22.2303,42.9118 23.7303,42.5785 25,40.5C 25.2784,41.4158 25.7784,42.0825 26.5,42.5C 27.4551,44.7099 28.9551,45.0432 31,43.5C 31.3333,42.5 31.6667,41.5 32,40.5C 33.2697,42.5785 34.7697,42.9118 36.5,41.5C 37.4345,40.4324 37.7678,39.099 37.5,37.5C 38.5,37.5 39.5,37.5 40.5,37.5C 40.5,36.1667 40.5,34.8333 40.5,33.5C 41.1667,32.8333 41.8333,32.1667 42.5,31.5C 42.5,31.1667 42.5,30.8333 42.5,30.5C 43.7124,29.7701 44.7124,28.7701 45.5,27.5C 46.1719,28.9492 46.8386,30.2825 47.5,31.5C 47.5,32.8333 47.5,34.1667 47.5,35.5C 45.947,38.2399 44.1137,40.9066 42,43.5C 39.833,44.4881 37.9997,45.8214 36.5,47.5C 31.1667,47.5 25.8333,47.5 20.5,47.5C 10.7756,42.6781 3.77555,35.3447 -0.5,25.5C -0.5,23.5 -0.5,21.5 -0.5,19.5C 2.13862,17.8442 4.80528,16.1776 7.5,14.5C 8.99891,15.494 10.6656,15.494 12.5,14.5C 17.6755,12.8164 23.0089,12.1497 28.5,12.5 Z"/></g>
<g><path style="opacity:1" fill="#92900b" d="M 33.5,16.5 C 35.9118,16.6941 36.9118,18.0274 36.5,20.5C 35.0413,20.5674 33.7079,20.2341 32.5,19.5C 32.5569,18.391 32.8902,17.391 33.5,16.5 Z"/></g>
<g><path style="opacity:1" fill="#8d8d0b" d="M 23.5,16.5 C 23.5,17.8333 23.5,19.1667 23.5,20.5C 22.5,20.5 21.5,20.5 20.5,20.5C 20.5,19.5 20.5,18.5 20.5,17.5C 21.391,16.8902 22.391,16.5569 23.5,16.5 Z"/></g>
<g><path style="opacity:1" fill="#2a5910" d="M 28.5,12.5 C 30.5891,12.8567 32.5891,13.5233 34.5,14.5C 34.1373,15.1835 33.8039,15.8501 33.5,16.5C 32.8902,17.391 32.5569,18.391 32.5,19.5C 33.1834,21.1765 34.5168,21.8432 36.5,21.5C 36.2627,22.791 36.596,23.791 37.5,24.5C 38.5511,25.2223 39.2178,26.2223 39.5,27.5C 39.5,28.8333 39.5,30.1667 39.5,31.5C 40.5,31.5 41.5,31.5 42.5,31.5C 41.8333,32.1667 41.1667,32.8333 40.5,33.5C 39.1667,33.5 37.8333,33.5 36.5,33.5C 36.5,34.8333 36.5,36.1667 36.5,37.5C 35.5,37.5 34.5,37.5 33.5,37.5C 33.5,38.8333 33.5,40.1667 33.5,41.5C 34.5,41.5 35.5,41.5 36.5,41.5C 34.7697,42.9118 33.2697,42.5785 32,40.5C 31.6667,41.5 31.3333,42.5 31,43.5C 28.9551,45.0432 27.4551,44.7099 26.5,42.5C 25.7784,42.0825 25.2784,41.4158 25,40.5C 23.7303,42.5785 22.2303,42.9118 20.5,41.5C 19.596,40.791 19.2627,39.791 19.5,38.5C 18.1667,38.5 16.8333,38.5 15.5,38.5C 15.2322,36.901 15.5655,35.5676 16.5,34.5C 16.5,35.5 16.5,36.5 16.5,37.5C 17.5,37.5 18.5,37.5 19.5,37.5C 19.8432,35.5168 19.1765,34.1834 17.5,33.5C 17.5,32.8333 17.5,32.1667 17.5,31.5C 17.5,30.1667 17.5,28.8333 17.5,27.5C 16.5,27.5 15.5,27.5 14.5,27.5C 15.1098,26.609 15.4431,25.609 15.5,24.5C 16.8333,24.5 18.1667,24.5 19.5,24.5C 19.7148,22.8212 19.0481,21.8212 17.5,21.5C 18.1224,19.8784 19.1224,18.5451 20.5,17.5C 20.5,18.5 20.5,19.5 20.5,20.5C 21.5,20.5 22.5,20.5 23.5,20.5C 23.5,19.1667 23.5,17.8333 23.5,16.5C 24.609,16.4431 25.609,16.1098 26.5,15.5C 26.5,16.5 26.5,17.5 26.5,18.5C 27.8333,18.5 29.1667,18.5 30.5,18.5C 30.5,17.5 30.5,16.5 30.5,15.5C 29.5,15.5 28.5,15.5 27.5,15.5C 27.5569,14.391 27.8902,13.391 28.5,12.5 Z"/></g>
<g><path style="opacity:1" fill="#8b8c0b" d="M 26.5,15.5 C 26.8333,15.5 27.1667,15.5 27.5,15.5C 28.5,15.5 29.5,15.5 30.5,15.5C 30.5,16.5 30.5,17.5 30.5,18.5C 29.1667,18.5 27.8333,18.5 26.5,18.5C 26.5,17.5 26.5,16.5 26.5,15.5 Z"/></g>
<g><path style="opacity:1" fill="#8a8c0b" d="M 17.5,21.5 C 19.0481,21.8212 19.7148,22.8212 19.5,24.5C 18.1667,24.5 16.8333,24.5 15.5,24.5C 15.2852,22.8212 15.9519,21.8212 17.5,21.5 Z"/></g>
<g><path style="opacity:0.985" fill="#356410" d="M 43.5,19.5 C 43.5246,22.179 44.858,23.5123 47.5,23.5C 47.5,26.1667 47.5,28.8333 47.5,31.5C 46.8386,30.2825 46.1719,28.9492 45.5,27.5C 44.7124,28.7701 43.7124,29.7701 42.5,30.5C 42.5,29.5 42.5,28.5 42.5,27.5C 41.5,27.5 40.5,27.5 39.5,27.5C 39.2178,26.2223 38.5511,25.2223 37.5,24.5C 36.596,23.791 36.2627,22.791 36.5,21.5C 34.5168,21.8432 33.1834,21.1765 32.5,19.5C 33.7079,20.2341 35.0413,20.5674 36.5,20.5C 36.9118,18.0274 35.9118,16.6941 33.5,16.5C 33.8039,15.8501 34.1373,15.1835 34.5,14.5C 32.5891,13.5233 30.5891,12.8567 28.5,12.5C 23.0089,12.1497 17.6755,12.8164 12.5,14.5C 13.347,13.0337 14.6803,12.2004 16.5,12C 27.055,9.44464 36.055,11.9446 43.5,19.5 Z"/></g>
<g><path style="opacity:1" fill="#8f8e0b" d="M 37.5,24.5 C 37.5,23.5 37.5,22.5 37.5,21.5C 38.8333,21.5 40.1667,21.5 41.5,21.5C 41.5,22.5 41.5,23.5 41.5,24.5C 40.1667,24.5 38.8333,24.5 37.5,24.5 Z"/></g>
<g><path style="opacity:1" fill="#94920a" d="M 14.5,27.5 C 15.5,27.5 16.5,27.5 17.5,27.5C 17.5,28.8333 17.5,30.1667 17.5,31.5C 16.5,31.5 15.5,31.5 14.5,31.5C 14.5,30.1667 14.5,28.8333 14.5,27.5 Z"/></g>
<g><path style="opacity:1" fill="#8b8d0b" d="M 39.5,27.5 C 40.5,27.5 41.5,27.5 42.5,27.5C 42.5,28.5 42.5,29.5 42.5,30.5C 42.5,30.8333 42.5,31.1667 42.5,31.5C 41.5,31.5 40.5,31.5 39.5,31.5C 39.5,30.1667 39.5,28.8333 39.5,27.5 Z"/></g>
<g><path style="opacity:1" fill="#8d8d0b" d="M 17.5,33.5 C 19.1765,34.1834 19.8432,35.5168 19.5,37.5C 18.5,37.5 17.5,37.5 16.5,37.5C 16.5,36.5 16.5,35.5 16.5,34.5C 16.5,33.8333 16.8333,33.5 17.5,33.5 Z"/></g>
<g><path style="opacity:1" fill="#6b7b0e" d="M 40.5,33.5 C 40.5,34.8333 40.5,36.1667 40.5,37.5C 39.5,37.5 38.5,37.5 37.5,37.5C 37.7678,39.099 37.4345,40.4324 36.5,41.5C 35.5,41.5 34.5,41.5 33.5,41.5C 33.5,40.1667 33.5,38.8333 33.5,37.5C 34.5,37.5 35.5,37.5 36.5,37.5C 36.5,36.1667 36.5,34.8333 36.5,33.5C 37.8333,33.5 39.1667,33.5 40.5,33.5 Z"/></g>
<g><path style="opacity:1" fill="#9d9609" d="M 20.5,41.5 C 20.5,40.5 20.5,39.5 20.5,38.5C 21.5,38.5 22.5,38.5 23.5,38.5C 23.5,39.5 23.5,40.5 23.5,41.5C 22.5,41.5 21.5,41.5 20.5,41.5 Z"/></g>
<g><path style="opacity:1" fill="#94920a" d="M 26.5,42.5 C 27.2032,39.1394 28.5365,38.8061 30.5,41.5C 29.5629,43.6424 28.2296,43.9757 26.5,42.5 Z"/></g>
</svg>
