<svg width="32" height="32" viewBox="0 0 32 32" fill="none" xmlns="http://www.w3.org/2000/svg">
<path d="M2.79254 17.1306V21.7439H0V10.1639H7.74533V12.3183H2.79254V14.9821H7.29455V17.1306H2.79254Z" fill="#005248"/>
<path d="M11.8785 21.738H9.09769V10.1639H11.8785V21.738Z" fill="#005248"/>
<path d="M19.7878 18.6645C19.7878 18.2547 19.6414 17.9385 19.3546 17.7102C19.0677 17.4819 18.5584 17.2477 17.8324 17.0018C17.1065 16.7559 16.5152 16.5218 16.0527 16.2935C14.554 15.5558 13.8046 14.543 13.8046 13.255C13.8046 12.611 13.9919 12.049 14.3666 11.5573C14.7413 11.0655 15.2682 10.685 15.9532 10.4098C16.6381 10.1347 17.405 10 18.2598 10C19.0911 10 19.8405 10.1464 20.4962 10.4449C21.1518 10.7435 21.667 11.165 22.0359 11.7153C22.3988 12.2656 22.5862 12.8921 22.5862 13.5946H19.8053C19.8053 13.1204 19.659 12.7574 19.3721 12.4998C19.0853 12.2422 18.693 12.1076 18.2012 12.1076C17.7036 12.1076 17.3114 12.2188 17.0187 12.4354C16.7259 12.652 16.5854 12.933 16.5854 13.2726C16.5854 13.5712 16.7435 13.8405 17.0596 14.0805C17.3758 14.3205 17.9378 14.5723 18.7398 14.8299C19.5419 15.0874 20.1976 15.3626 20.7128 15.6612C21.9656 16.3813 22.5862 17.3765 22.5862 18.6411C22.5862 19.6539 22.2056 20.4501 21.4387 21.0238C20.6776 21.6034 19.6297 21.8902 18.3008 21.8902C17.3641 21.8902 16.5152 21.7205 15.7541 21.3868C14.993 21.0472 14.4193 20.5906 14.0388 20.0051C13.6524 19.4197 13.4651 18.7464 13.4651 17.9795H16.2634C16.2634 18.6001 16.4215 19.0567 16.7435 19.3494C17.0655 19.6422 17.5865 19.7885 18.3066 19.7885C18.7691 19.7885 19.1321 19.689 19.4014 19.4899C19.6531 19.3026 19.7878 19.0274 19.7878 18.6645Z" fill="#005248"/>
<path d="M31.1862 16.8262H26.7955V19.5953H31.9766V21.7439H24.0088V10.1639H32V12.3183H26.8013V14.7596H31.1921L31.1862 16.8262Z" fill="#005248"/>
</svg>
