<?xml version="1.0" encoding="UTF-8" standalone="yes"?>
<svg id="Layer_1" data-name="Layer 1" xmlns="http://www.w3.org/2000/svg" viewBox="0 0 512 512" width="512" height="512">
  <defs>
    <style>.cls-1{fill:#ce6;}.cls-1,.cls-2,.cls-3,.cls-4{fill-rule:evenodd;}.cls-2{fill:#7b1;}.cls-3{fill:#251;}.cls-4{fill:#fed81b;}</style>
  </defs>
  <path class="cls-1" d="M311,0c143.88,89.28,221.1,239.69,196.48,353.91-17.82,82.72-80.21,152.35-187.54,157.41-94.8,4.47-173.5-63.93-193.32-144.58C98.42,252,160.26,95.55,311,0Z" transform="translate(0 0)"/>
  <path class="cls-2" d="M116.21,58.94C286,45.83,439.84,120.81,490.06,226.67c36.36,76.67,29.07,169-53.72,236.17-73.12,59.29-178,50.81-243.19-2.09C100.35,385.5,54.09,224,116.21,58.94Z" transform="translate(0 0)"/>
  <path class="cls-3" d="M0,238C126.89,126.75,295.64,95,401.08,149.32,477.43,188.68,528.79,266.48,504.49,369,483,459.63,394.42,515.17,309.82,511.86,189.45,507.15,52.72,406.19,0,238Z" transform="translate(0 0)"/>
  <polygon class="cls-4" points="383.11 170.78 389.11 188.97 408.61 188.94 392.81 200.14 398.87 218.31 383.11 207.05 367.35 218.31 373.42 200.14 357.61 188.94 377.12 188.97 383.11 170.78"/>
  <polygon class="cls-4" points="311.08 152.85 317.07 171.05 336.58 171.01 320.78 182.22 326.84 200.38 311.08 189.12 295.32 200.38 301.38 182.22 285.58 171.01 305.09 171.05 311.08 152.85"/>
  <polygon class="cls-4" points="239.48 171.35 245.47 189.54 264.98 189.5 249.17 200.71 255.24 218.88 239.48 207.61 223.72 218.88 229.78 200.71 213.98 189.5 233.48 189.54 239.48 171.35"/>
  <polygon class="cls-4" points="187.61 221.97 193.61 240.16 213.11 240.13 197.31 251.33 203.37 269.5 187.61 258.24 171.85 269.5 177.92 251.33 162.11 240.13 181.62 240.16 187.61 221.97"/>
  <polygon class="cls-4" points="168.88 291.71 174.88 309.9 194.38 309.86 178.58 321.07 184.65 339.24 168.88 327.97 153.12 339.24 159.19 321.07 143.38 309.86 162.89 309.9 168.88 291.71"/>
  <polygon class="cls-4" points="187.9 361.16 193.9 379.35 213.4 379.32 197.6 390.52 203.66 408.69 187.9 397.43 172.14 408.69 178.21 390.52 162.4 379.32 181.91 379.35 187.9 361.16"/>
  <polygon class="cls-4" points="239.98 412.54 245.97 430.74 265.48 430.7 249.67 441.9 255.74 460.07 239.98 448.81 224.22 460.07 230.28 441.9 214.47 430.7 233.98 430.74 239.98 412.54"/>
  <polygon class="cls-4" points="310.86 431.46 316.85 449.65 336.36 449.62 320.55 460.82 326.62 478.99 310.86 467.73 295.1 478.99 301.16 460.82 285.36 449.62 304.86 449.65 310.86 431.46"/>
  <polygon class="cls-4" points="382.6 413.11 388.6 431.3 408.1 431.26 392.3 442.47 398.36 460.64 382.6 449.37 366.84 460.64 372.91 442.47 357.1 431.26 376.61 431.3 382.6 413.11"/>
  <polygon class="cls-4" points="434.54 361.16 440.54 379.35 460.05 379.32 444.24 390.52 450.31 408.69 434.54 397.43 418.78 408.69 424.85 390.52 409.04 379.32 428.55 379.35 434.54 361.16"/>
  <polygon class="cls-4" points="453.85 291.99 459.84 310.18 479.35 310.14 463.55 321.35 469.61 339.52 453.85 328.25 438.09 339.52 444.15 321.35 428.35 310.14 447.86 310.18 453.85 291.99"/>
  <polygon class="cls-4" points="435.41 222.25 441.4 240.45 460.91 240.41 445.11 251.62 451.17 269.79 435.41 258.52 419.65 269.79 425.71 251.62 409.91 240.41 429.42 240.45 435.41 222.25"/>
</svg>