<?xml version="1.0" encoding="UTF-8"?>
<svg width="208px" height="62px" viewBox="0 0 208 62" version="1.1" xmlns="http://www.w3.org/2000/svg" xmlns:xlink="http://www.w3.org/1999/xlink">
    <!-- Generator: Sketch 47.1 (45422) - http://www.bohemiancoding.com/sketch -->
    <title>C3S–POS–LINE</title>
    <desc>Created with Sketch.</desc>
    <defs></defs>
    <g id="Page-1" stroke="none" stroke-width="1" fill="none" fill-rule="evenodd">
        <g id="C3S–POS–LINE" fill="#7D1E34">
            <path d="M0,30.7421369 C0,47.6341485 13.5476805,61.3290404 30.2566008,61.3290404 C35.0900432,61.3290404 39.5921031,60.2096112 43.6460788,58.1703386 C43.6460788,58.1703386 43.7228397,58.1306713 43.6813389,58.0544601 C43.6460788,57.9816847 43.5718142,58.021352 43.5718142,58.021352 C40.4598761,59.257909 37.1360653,59.9100764 33.5891486,59.9100764 C18.3761303,59.9100764 6.04507943,47.4048904 6.04507943,31.9761951 C6.04507943,16.5468751 18.3761303,4.03950273 33.5891486,4.03950273 C44.3859169,4.03950273 53.7245396,10.2847557 58.2409531,19.4582031 C58.2409531,19.4582031 58.2805817,19.5419104 58.3464214,19.5162985 C58.4216222,19.4885002 58.3826176,19.4079163 58.3826176,19.4079163 C53.9414048,8.09805825 43.0263747,0.157419731 30.2566008,0.157419731 C13.5476805,0.157419731 0,13.8501252 0,30.7421369" id="Fill-44"></path>
            <path d="M38.8363511,38.1402395 L38.8363511,25.5560313 L40.8858056,25.5560313 L40.8858056,38.1402395 C41.9361198,38.5506553 42.6800144,39.5707601 42.6800144,40.7670251 C42.6800144,42.3237313 41.4178275,43.5877743 39.8613904,43.5877743 C38.3055774,43.5877743 37.0440146,42.3237313 37.0440146,40.7670251 C37.0440146,39.5707601 37.7875971,38.5506553 38.8363511,38.1402395" id="Fill-45"></path>
            <path d="M43.6198678,25.7965337 C43.6198678,25.5744594 43.6008336,25.28898 43.5515318,25.0456665 C43.4560487,24.5384252 43.2535371,24.0599192 42.9720804,23.6470047 C42.4113511,22.8155537 41.5282884,22.2605242 40.6031007,22.0871751 C39.6797853,21.9113273 38.7315069,22.1037292 37.9904207,22.5672428 C37.24559,23.0254467 36.71232,23.730712 36.4564502,24.488763 C36.3297635,24.8698187 36.2645479,25.2608693 36.2686043,25.6416127 L36.2926311,26.5914408 C36.4346077,31.4748882 36.6302544,34.4964725 36.8471197,34.4964725 C37.0639849,34.4964725 37.2945797,30.6072057 37.4365563,25.7237583 C37.4365563,24.43098 38.4834381,23.3808904 39.7755804,23.3808904 C41.0680348,23.3808904 42.1158528,24.43098 42.1158528,25.7237583 L42.1158528,37.0457976 C42.2859125,37.1807288 42.4388103,37.3128489 42.6051257,37.4527776 C42.6996727,37.5342985 42.7483504,37.5808373 42.8179345,37.6492399 C42.9477416,37.7772996 43.0688116,37.9125431 43.1798966,38.0552829 C43.4011303,38.3398253 43.587104,38.6490426 43.7265842,38.9754387 C44.0105372,39.6269814 44.1197499,40.3375566 44.0592149,41.0268926 C43.948442,42.408688 43.1262263,43.632439 42.0372196,44.294289 C40.9497731,44.9726931 39.6267391,45.0879469 38.5308676,44.757178 C37.4237628,44.4332807 36.5447565,43.6886604 36.0211596,42.8459651 C35.4869534,42.0004587 35.2997316,41.0690586 35.3228223,40.2619701 C35.3446648,39.4498842 35.5727634,38.7636716 35.8311294,38.2420626 C36.0907437,37.7173302 36.3753208,37.3478311 36.5722157,37.0970215 C36.7691106,36.8455872 36.8798835,36.7090943 36.8471197,36.6656789 C36.8177883,36.627261 36.6449201,36.6834823 36.3668958,36.8768213 C36.0907437,37.0695355 35.7050668,37.4034277 35.3303112,37.9437772 C34.9577398,38.4819403 34.6007703,39.24249 34.486565,40.1973156 C34.3701754,41.1415217 34.5055992,42.2921849 35.0997163,43.3822541 C35.6807279,44.4651394 36.7357227,45.4733753 38.1464389,45.9546924 C39.5409291,46.4441303 41.2764751,46.3647958 42.7552152,45.5052341 C44.2255302,44.671909 45.3800646,43.0505482 45.5622938,41.1715064 C45.6602732,40.2429174 45.5273457,39.2649785 45.1466614,38.3669989 C44.9581915,37.9181653 44.7088745,37.4924448 44.4071354,37.1007696 C44.2573579,36.9061813 44.094163,36.7187768 43.9184865,36.5432414 C43.8354849,36.459534 43.7265842,36.3589603 43.6576242,36.2983662 C43.6588723,36.2996156 43.6576242,36.2974292 43.6576242,36.2974292 L43.6198678,25.7965337" id="Fill-46"></path>
            <path d="M11.8230558,30.4126174 C11.8230558,30.4126174 12.8225081,27.0502694 16.6933185,26.2272515 C16.903631,21.6046087 20.8430894,17.889628 25.67778,17.889628 C27.4635638,17.889628 29.1289015,18.3934336 30.5293205,19.2601791 C32.3594135,16.0743036 35.8932247,13.9360189 39.9699791,13.9360189 C45.9186393,13.9360189 50.7430326,18.539609 50.7430326,24.2160896 C50.7430326,24.8532647 50.6821856,25.4779461 50.565796,26.0826378 C52.7506743,26.217569 54.1907218,27.3379352 54.1907218,27.3379352 C55.3296544,28.1525198 56.005525,29.184806 56.3718556,30.0637328 C56.7406826,30.9526545 56.8083944,31.7022723 56.8021537,32.1926473 C56.7906084,32.6880197 56.7088548,32.9388293 56.6442633,32.9388293 C56.5687505,32.9388293 56.5138322,32.6886443 56.3974426,32.2404354 C56.2763725,31.7950375 56.0935192,31.140996 55.6666536,30.4101187 C55.2432203,29.6854882 54.5729663,28.8740269 53.5722659,28.2787055 L53.5604085,28.2787055 C52.7413132,27.7608446 51.3970607,27.4228919 49.8752597,27.4228919 C49.5547984,27.4228919 49.2415139,27.4388213 48.9385267,27.4672443 C49.0848717,26.7988351 49.1878437,26.0660837 49.1878437,25.3530098 C49.1878437,20.1219272 45.0343284,15.879403 39.9100681,15.879403 C35.8751266,15.879403 32.4034106,18.4724558 31.1259339,22.1449581 C29.4899276,20.239992 26.7227896,19.2795442 23.9110304,19.8967295 C20.1818844,20.7169363 17.6927708,24.0208766 18.1052828,27.4253906 C14.1527189,27.2623487 12.5017347,30.6993462 12.5017347,30.6993462 C12.1625513,31.3618209 12.0077813,31.9359032 11.9041852,32.3275784 C11.8052697,32.7211278 11.7515995,32.9388293 11.6813913,32.9388293 C11.6202322,32.9388293 11.5462796,32.7211278 11.5247491,32.2885359 C11.5103954,31.8590673 11.5512721,31.2081493 11.8230558,30.4126174" id="Fill-47"></path>
            <path d="M77.0351828,29.1579532 C76.9889663,30.1624916 76.7182734,31.0497104 76.2230962,31.8196362 C75.7279189,32.589562 75.0330305,33.1859977 74.1384102,33.6089612 C73.2437899,34.0319247 72.2220895,34.2434033 71.0732782,34.2434033 C69.1783998,34.2434033 67.6862879,33.6254893 66.5968979,32.3896427 C65.5075079,31.1537962 64.962821,29.4090978 64.962821,27.1554953 L64.962821,26.4417479 C64.962821,25.0274636 65.2087554,23.7899834 65.7006315,22.7292702 C66.1925076,21.668557 66.9006005,20.8490774 67.8249314,20.270807 C68.7492623,19.6925365 69.8188292,19.4034056 71.0336642,19.4034056 C72.7832906,19.4034056 74.189573,19.8643629 75.2525535,20.7862912 C76.3155341,21.7082195 76.9196413,22.9787432 77.0648933,24.5979005 L73.5986697,24.5979005 C73.5722602,23.7189294 73.3510844,23.087798 72.9351354,22.7044873 C72.5191865,22.3211766 71.8853691,22.1295241 71.0336642,22.1295241 C70.1687545,22.1295241 69.5349371,22.4533507 69.1321929,23.1010136 C68.7294487,23.7486765 68.5181762,24.782939 68.4983692,26.2038321 L68.4983692,27.2248874 C68.4983692,28.764739 68.6914854,29.8650885 69.0777237,30.525969 C69.463962,31.1868495 70.1291401,31.5172848 71.0732782,31.5172848 C71.8721642,31.5172848 72.4828737,31.3289367 72.9054249,30.9522348 C73.3279762,30.5755329 73.5524532,29.977445 73.5788627,29.1579532 L77.0351828,29.1579532 Z M82.0463519,34.0451402 L78.6989702,34.0451402 L78.6989702,18.8185293 L82.0463519,18.8185293 L82.0463519,34.0451402 Z M87.6220202,34.0451402 L84.2746385,34.0451402 L84.2746385,23.3191031 L87.6220202,23.3191031 L87.6220202,34.0451402 Z M84.0765686,20.553332 C84.0765686,20.077498 84.2482275,19.6875844 84.5915504,19.3835793 C84.9348733,19.0795743 85.3805262,18.927574 85.9285224,18.927574 C86.4765186,18.927574 86.9221715,19.0795743 87.2654944,19.3835793 C87.6088173,19.6875844 87.7804762,20.077498 87.7804762,20.553332 C87.7804762,21.0291659 87.6088173,21.4190796 87.2654944,21.7230846 C86.9221715,22.0270897 86.4765186,22.1790899 85.9285224,22.1790899 C85.3805262,22.1790899 84.9348733,22.0270897 84.5915504,21.7230846 C84.2482275,21.4190796 84.0765686,21.0291659 84.0765686,20.553332 Z M92.8312592,23.3191031 L92.9401977,24.5780742 C93.6994695,23.6065798 94.7195194,23.1208399 96.000378,23.1208399 C97.3538626,23.1208399 98.2682762,23.6594495 98.7436464,24.7366847 C99.4699064,23.6594495 100.519667,23.1208399 101.892958,23.1208399 C104.065136,23.1208399 105.180919,24.4359724 105.24034,27.0662768 L105.24034,34.0451402 L101.892958,34.0451402 L101.892958,27.2744532 C101.892958,26.7259223 101.800526,26.3260956 101.61566,26.074961 C101.430794,25.8238264 101.094079,25.698261 100.605504,25.698261 C99.9452673,25.698261 99.4533986,25.9923484 99.1298828,26.5805321 L99.1397863,26.7193163 L99.1397863,34.0451402 L95.7924046,34.0451402 L95.7924046,27.2942795 C95.7924046,26.732531 95.703274,26.3260956 95.5250102,26.074961 C95.3467463,25.8238264 95.0067297,25.698261 94.5049501,25.698261 C93.8645208,25.698261 93.3759532,25.9923484 93.0392326,26.5805321 L93.0392326,34.0451402 L89.7017544,34.0451402 L89.7017544,23.3191031 L92.8312592,23.3191031 Z M113.182944,34.0451402 C113.064101,33.8270496 112.958465,33.5065273 112.866032,33.0835638 C112.252012,33.856794 111.393718,34.2434033 110.291123,34.2434033 C109.280961,34.2434033 108.422667,33.9377507 107.716214,33.3264362 C107.009761,32.7151217 106.65654,31.9468596 106.65654,31.0216269 C106.65654,29.8584772 107.085687,28.9795193 107.943994,28.3847269 C108.802302,27.7899344 110.05013,27.4925426 111.687516,27.4925426 L112.717479,27.4925426 L112.717479,26.9274926 C112.717479,25.9427807 112.291633,25.4504321 111.439928,25.4504321 C110.647645,25.4504321 110.251509,25.8403457 110.251509,26.6201847 L106.914031,26.6201847 C106.914031,25.5826023 107.354732,24.7399923 108.236147,24.0923294 C109.117563,23.4446665 110.241599,23.1208399 111.608288,23.1208399 C112.974977,23.1208399 114.054448,23.4545796 114.846731,24.1220689 C115.639015,24.7895582 116.045054,25.704864 116.064861,26.8680137 L116.064861,31.6164164 C116.078066,32.6011284 116.229918,33.3545209 116.520422,33.8766165 L116.520422,34.0451402 L113.182944,34.0451402 Z M111.093306,31.8642454 C111.509255,31.8642454 111.854223,31.7750278 112.128221,31.5965901 C112.40222,31.4181524 112.598637,31.2165868 112.717479,30.9918875 L112.717479,29.2769111 L111.746937,29.2769111 C110.584921,29.2769111 110.003922,29.7989989 110.003922,30.8431901 C110.003922,31.1471951 110.106257,31.3933694 110.31093,31.5817204 C110.515603,31.7700713 110.776393,31.8642454 111.093306,31.8642454 Z M121.798985,20.6524636 L121.798985,23.3191031 L123.561808,23.3191031 L123.561808,25.6387821 L121.798985,25.6387821 L121.798985,30.5457953 C121.798985,30.9489325 121.87161,31.2298025 122.016862,31.3884138 C122.162114,31.5470251 122.449313,31.6263296 122.878467,31.6263296 C123.208585,31.6263296 123.48588,31.6065035 123.71036,31.5668506 L123.71036,33.9559217 C123.109545,34.1475771 122.48233,34.2434033 121.828696,34.2434033 C120.679885,34.2434033 119.831494,33.9724464 119.283497,33.4305244 C118.735501,32.8886023 118.461507,32.0658184 118.461507,30.962148 L118.461507,25.6387821 L117.094825,25.6387821 L117.094825,23.3191031 L118.461507,23.3191031 L118.461507,20.6524636 L121.798985,20.6524636 Z M130.058501,34.2434033 C128.414513,34.2434033 127.084156,33.7527069 126.067392,32.7712993 C125.050628,31.7898918 124.542254,30.5127593 124.542254,28.9398637 L124.542254,28.6622953 C124.542254,27.5652337 124.745274,26.5970582 125.151319,25.75774 C125.557364,24.9184217 126.149918,24.2691164 126.928996,23.8098044 C127.708075,23.3504925 128.632392,23.1208399 129.701975,23.1208399 C131.207314,23.1208399 132.395722,23.5884059 133.267234,24.5235518 C134.138746,25.4586977 134.574496,26.762265 134.574496,28.4342927 L134.574496,29.7329164 L127.939153,29.7329164 C128.057996,30.3343176 128.318785,30.8068401 128.721529,31.150498 C129.124273,31.4941559 129.645852,31.6659822 130.286282,31.6659822 C131.34266,31.6659822 132.167943,31.2958947 132.762156,30.5557085 L134.287294,32.3599033 C133.871345,32.9348693 133.282093,33.3925222 132.51952,33.7328757 C131.756947,34.0732291 130.936616,34.2434033 130.058501,34.2434033 Z M129.682168,25.698261 C128.705019,25.698261 128.124019,26.3459142 127.939153,27.64124 L131.306342,27.64124 L131.306342,27.3834979 C131.319547,26.8481847 131.1842,26.4334884 130.900298,26.1393966 C130.616397,25.8453047 130.210358,25.698261 129.682168,25.698261 Z M77.0351828,52.8958491 C76.9889663,53.9003875 76.7182734,54.7876062 76.2230962,55.557532 C75.7279189,56.3274578 75.0330305,56.9238936 74.1384102,57.3468571 C73.2437899,57.7698206 72.2220895,57.9812992 71.0732782,57.9812992 C69.1783998,57.9812992 67.6862879,57.3633852 66.5968979,56.1275386 C65.5075079,54.8916921 64.962821,53.1469937 64.962821,50.8933912 L64.962821,50.1796438 C64.962821,48.7653595 65.2087554,47.5278793 65.7006315,46.4671661 C66.1925076,45.4064528 66.9006005,44.5869733 67.8249314,44.0087029 C68.7492623,43.4304324 69.8188292,43.1413015 71.0336642,43.1413015 C72.7832906,43.1413015 74.189573,43.6022588 75.2525535,44.5241871 C76.3155341,45.4461154 76.9196413,46.7166391 77.0648933,48.3357964 L73.5986697,48.3357964 C73.5722602,47.4568253 73.3510844,46.8256939 72.9351354,46.4423832 C72.5191865,46.0590725 71.8853691,45.86742 71.0336642,45.86742 C70.1687545,45.86742 69.5349371,46.1912466 69.1321929,46.8389095 C68.7294487,47.4865724 68.5181762,48.5208349 68.4983692,49.941728 L68.4983692,50.9627833 C68.4983692,52.5026349 68.6914854,53.6029844 69.0777237,54.2638649 C69.463962,54.9247454 70.1291401,55.2551807 71.0732782,55.2551807 C71.8721642,55.2551807 72.4828737,55.0668326 72.9054249,54.6901307 C73.3279762,54.3134288 73.5524532,53.7153409 73.5788627,52.8958491 L77.0351828,52.8958491 Z M81.788861,48.2069253 C82.5019163,47.3081278 83.4130288,46.8587358 84.5222259,46.8587358 C85.7040491,46.8587358 86.5953548,47.2089972 87.1961699,47.9095306 C87.796985,48.6100639 88.1039903,49.6443264 88.117195,51.0123491 L88.117195,57.783036 L84.7698133,57.783036 L84.7698133,51.0916543 C84.7698133,50.5232971 84.6542737,50.1052964 84.423191,49.8376398 C84.1921082,49.5699832 83.7992735,49.4361569 83.2446749,49.4361569 C82.5580291,49.4361569 82.0727626,49.6542442 81.788861,50.0904254 L81.788861,57.783036 L78.4513828,57.783036 L78.4513828,42.5564252 L81.788861,42.5564252 L81.788861,48.2069253 Z M96.0102815,57.783036 C95.8914389,57.5649455 95.7858027,57.2444232 95.6933696,56.8214597 C95.0793498,57.5946899 94.2210554,57.9812992 93.1184606,57.9812992 C92.1082989,57.9812992 91.2500045,57.6756465 90.5435516,57.0643321 C89.8370987,56.4530176 89.4838775,55.6847555 89.4838775,54.7595228 C89.4838775,53.5963731 89.9130247,52.7174152 90.771332,52.1226228 C91.6296393,51.5278303 92.8774673,51.2304385 94.5148536,51.2304385 L95.5448172,51.2304385 L95.5448172,50.6653885 C95.5448172,49.6806766 95.1189711,49.188328 94.2672662,49.188328 C93.4749825,49.188328 93.0788466,49.5782416 93.0788466,50.3580806 L89.7413684,50.3580806 C89.7413684,49.3204982 90.1820696,48.4778882 91.0634852,47.8302253 C91.9449007,47.1825624 93.0689363,46.8587358 94.4356256,46.8587358 C95.8023149,46.8587358 96.8817852,47.1924755 97.6740688,47.8599648 C98.4663525,48.5274541 98.8723918,49.4427599 98.8921989,50.6059096 L98.8921989,55.3543123 C98.9054036,56.3390243 99.0572557,57.0924167 99.3477597,57.6145124 L99.3477597,57.783036 L96.0102815,57.783036 Z M93.9206438,55.6021413 C94.3365927,55.6021413 94.681561,55.5129237 94.9555591,55.334486 C95.2295572,55.1560482 95.4259746,54.9544827 95.5448172,54.7297833 L95.5448172,53.014807 L94.5742745,53.014807 C93.4122585,53.014807 92.8312592,53.5368948 92.8312592,54.581086 C92.8312592,54.885091 92.9335943,55.1312653 93.1382676,55.3196163 C93.3429409,55.5079672 93.6037303,55.6021413 93.9206438,55.6021413 Z M103.804333,47.056999 L103.913271,48.31597 C104.652736,47.3444757 105.672786,46.8587358 106.973452,46.8587358 C108.089251,46.8587358 108.922787,47.1924755 109.474085,47.8599648 C110.025382,48.5274541 110.31093,49.5319774 110.330737,50.8735648 L110.330737,57.783036 L106.983355,57.783036 L106.983355,51.0123491 C106.983355,50.470427 106.874418,50.0722525 106.65654,49.8178135 C106.438662,49.5633745 106.042526,49.4361569 105.46812,49.4361569 C104.814486,49.4361569 104.32922,49.6938964 104.012306,50.2093832 L104.012306,57.783036 L100.674828,57.783036 L100.674828,47.056999 L103.804333,47.056999 Z M111.786551,52.3407122 C111.786551,51.2568682 111.964812,50.2986058 112.32134,49.4658964 C112.677867,48.6331869 113.189543,47.9904903 113.856382,47.5377871 C114.52322,47.085084 115.298986,46.8587358 116.183703,46.8587358 C117.299503,46.8587358 118.171002,47.235432 118.798226,47.9888358 L118.917068,47.056999 L121.947538,47.056999 L121.947538,57.3765966 C121.947538,58.3216557 121.728013,59.1427874 121.288955,59.8400163 C120.849898,60.5372453 120.21443,61.0725505 119.382532,61.445948 C118.550635,61.8193454 117.586704,62.0060414 116.490712,62.0060414 C115.70503,62.0060414 114.944119,61.8573455 114.207956,61.5599493 C113.471792,61.262553 112.908949,60.8759437 112.51941,60.4001098 L113.915803,58.4373045 C114.536425,59.1708818 115.355106,59.537665 116.37187,59.537665 C117.850799,59.537665 118.590253,58.7776638 118.590253,57.2576387 L118.590253,56.9205913 C117.949823,57.6277334 117.141046,57.9812992 116.163896,57.9812992 C114.856628,57.9812992 113.800266,57.4806897 112.994777,56.4794557 C112.189289,55.4782218 111.786551,54.1383066 111.786551,52.4596701 L111.786551,52.3407122 Z M115.133933,52.5488886 C115.133933,53.4278596 115.298989,54.1234259 115.629107,54.6356083 C115.959226,55.1477907 116.421384,55.4038781 117.015597,55.4038781 C117.735254,55.4038781 118.260135,55.1626603 118.590253,54.6802176 L118.590253,50.1697306 C118.266737,49.680679 117.748459,49.4361569 117.035404,49.4361569 C116.441191,49.4361569 115.975731,49.7021573 115.639011,50.2341661 C115.30229,50.766175 115.133933,51.5377414 115.133933,52.5488886 Z M129.028538,57.9812992 C127.384549,57.9812992 126.054193,57.4906028 125.037429,56.5091952 C124.020665,55.5277877 123.51229,54.2506552 123.51229,52.6777596 L123.51229,52.4001912 C123.51229,51.3031295 123.71531,50.3349541 124.121355,49.4956359 C124.527401,48.6563176 125.119954,48.0070123 125.899033,47.5477003 C126.678112,47.0883883 127.602429,46.8587358 128.672012,46.8587358 C130.177351,46.8587358 131.365758,47.3263018 132.23727,48.2614477 C133.108782,49.1965936 133.544532,50.5001609 133.544532,52.1721886 L133.544532,53.4708123 L126.909189,53.4708123 C127.028032,54.0722135 127.288821,54.544736 127.691566,54.8883939 C128.09431,55.2320517 128.615889,55.4038781 129.256318,55.4038781 C130.312696,55.4038781 131.137979,55.0337906 131.732192,54.2936044 L133.257331,56.0977992 C132.841382,56.6727652 132.252129,57.1304181 131.489556,57.4707716 C130.726983,57.811125 129.906652,57.9812992 129.028538,57.9812992 Z M128.652205,49.4361569 C127.675055,49.4361569 127.094056,50.0838101 126.909189,51.3791359 L130.276378,51.3791359 L130.276378,51.1213938 C130.289583,50.5860806 130.154236,50.1713843 129.870335,49.8772925 C129.586433,49.5832006 129.180394,49.4361569 128.652205,49.4361569 Z M147.528268,53.9466439 C147.528268,53.4377659 147.348357,53.0412435 146.988528,52.7570649 C146.628699,52.4728863 145.996532,52.1787988 145.092008,51.8747938 C144.187485,51.5707888 143.448031,51.2767014 142.873625,50.9925227 C141.005156,50.0738988 140.070936,48.811636 140.070936,47.2056963 C140.070936,46.4060309 140.303666,45.7005516 140.769132,45.0892371 C141.234599,44.4779226 141.893175,44.0020958 142.74488,43.6617423 C143.596585,43.3213889 144.553913,43.1512147 145.616894,43.1512147 C146.653465,43.1512147 147.582734,43.3362584 148.404728,43.7063515 C149.226722,44.0764446 149.865491,44.6034889 150.321054,45.2875002 C150.776618,45.9715116 151.004396,46.7529911 151.004396,47.6319621 L147.538172,47.6319621 C147.538172,47.0437785 147.35826,46.5877778 146.998431,46.2639463 C146.638603,45.9401149 146.151686,45.7782016 145.537666,45.7782016 C144.917044,45.7782016 144.426825,45.9153322 144.066997,46.1895976 C143.707168,46.463863 143.527256,46.8124723 143.527256,47.2354358 C143.527256,47.6055289 143.725324,47.9409207 144.121466,48.2416214 C144.517608,48.542322 145.214147,48.8529312 146.211103,49.1734582 C147.20806,49.4939853 148.026741,49.8392902 148.667171,50.2093832 C150.225328,51.1081807 151.004396,52.3473131 151.004396,53.9268175 C151.004396,55.1890993 150.529033,56.1804052 149.578292,56.900765 C148.627552,57.6211247 147.323605,57.9812992 145.666411,57.9812992 C144.497793,57.9812992 143.43978,57.7714728 142.492341,57.3518137 C141.544901,56.9321545 140.831857,56.3571971 140.353186,55.6269242 C139.874514,54.8966512 139.635182,54.0556934 139.635182,53.1040254 L143.121213,53.1040254 C143.121213,53.8772556 143.320931,54.4472565 143.720374,54.8140452 C144.119817,55.1808339 144.76849,55.3642255 145.666411,55.3642255 C146.240817,55.3642255 146.694723,55.2403122 147.028142,54.992482 C147.361561,54.7446518 147.528268,54.3960426 147.528268,53.9466439 Z M157.818001,57.9812992 C156.174012,57.9812992 154.843656,57.4906028 153.826892,56.5091952 C152.810128,55.5277877 152.301754,54.2506552 152.301754,52.6777596 L152.301754,52.4001912 C152.301754,51.3031295 152.504773,50.3349541 152.910819,49.4956359 C153.316864,48.6563176 153.909417,48.0070123 154.688496,47.5477003 C155.467575,47.0883883 156.391892,46.8587358 157.461475,46.8587358 C158.966814,46.8587358 160.155222,47.3263018 161.026734,48.2614477 C161.898246,49.1965936 162.333995,50.5001609 162.333995,52.1721886 L162.333995,53.4708123 L155.698653,53.4708123 C155.817495,54.0722135 156.078285,54.544736 156.481029,54.8883939 C156.883773,55.2320517 157.405352,55.4038781 158.045781,55.4038781 C159.10216,55.4038781 159.927443,55.0337906 160.521655,54.2936044 L162.046794,56.0977992 C161.630845,56.6727652 161.041593,57.1304181 160.27902,57.4707716 C159.516447,57.811125 158.696115,57.9812992 157.818001,57.9812992 Z M157.441668,49.4361569 C156.464518,49.4361569 155.883519,50.0838101 155.698653,51.3791359 L159.065842,51.3791359 L159.065842,51.1213938 C159.079046,50.5860806 158.9437,50.1713843 158.659798,49.8772925 C158.375897,49.5832006 157.969857,49.4361569 157.441668,49.4361569 Z M170.157757,50.0805122 L169.058469,50.0012069 C168.008693,50.0012069 167.335262,50.3316422 167.038156,50.9925227 L167.038156,57.783036 L163.700678,57.783036 L163.700678,47.056999 L166.830182,47.056999 L166.939121,48.4349279 C167.500322,47.3841279 168.28269,46.8587358 169.28625,46.8587358 C169.642777,46.8587358 169.953084,46.898388 170.217178,46.9776937 L170.157757,50.0805122 Z M175.812654,53.8078596 L177.506151,47.056999 L181.021892,47.056999 L177.525958,57.783036 L174.119156,57.783036 L170.623222,47.056999 L174.148866,47.056999 L175.812654,53.8078596 Z M185.537887,57.783036 L182.190505,57.783036 L182.190505,47.056999 L185.537887,47.056999 L185.537887,57.783036 Z M181.992435,44.2912279 C181.992435,43.8153939 182.164094,43.4254802 182.507417,43.1214752 C182.85074,42.8174702 183.296393,42.6654699 183.844389,42.6654699 C184.392385,42.6654699 184.838038,42.8174702 185.181361,43.1214752 C185.524684,43.4254802 185.696343,43.8153939 185.696343,44.2912279 C185.696343,44.7670618 185.524684,45.1569755 185.181361,45.4609805 C184.838038,45.7649856 184.392385,45.9169858 183.844389,45.9169858 C183.296393,45.9169858 182.85074,45.7649856 182.507417,45.4609805 C182.164094,45.1569755 181.992435,44.7670618 181.992435,44.2912279 Z M192.123712,55.4038781 C192.59248,55.4038781 192.955604,55.2766605 193.213096,55.0222215 C193.470588,54.7677825 193.596031,54.4125646 193.589429,53.956557 L196.718934,53.956557 C196.718934,55.1329243 196.29804,56.0977954 195.456238,56.8511992 C194.614437,57.604603 193.530015,57.9812992 192.20294,57.9812992 C190.644782,57.9812992 189.416761,57.492255 188.518839,56.5141518 C187.620918,55.5360486 187.171964,54.1812639 187.171964,52.449757 L187.171964,52.3109728 C187.171964,51.2271287 187.371682,50.2705185 187.771125,49.4411135 C188.170568,48.6117085 188.746616,47.9739683 189.499285,47.527874 C190.251955,47.0817796 191.14326,46.8587358 192.173229,46.8587358 C193.566328,46.8587358 194.672207,47.2453451 195.4909,48.0185753 C196.309593,48.7918055 196.718934,49.8392854 196.718934,51.1610464 L193.589429,51.1610464 C193.589429,50.6059068 193.454083,50.1796453 193.183386,49.882249 C192.912689,49.5848528 192.549564,49.4361569 192.094001,49.4361569 C191.229092,49.4361569 190.724018,49.9879839 190.578766,51.0916543 C190.53255,51.441921 190.509442,51.9243565 190.509442,52.5389754 C190.509442,53.6162106 190.638186,54.3629944 190.895678,54.7793491 C191.15317,55.1957039 191.562511,55.4038781 192.123712,55.4038781 Z M203.314662,57.9812992 C201.670674,57.9812992 200.340317,57.4906028 199.323553,56.5091952 C198.306789,55.5277877 197.798415,54.2506552 197.798415,52.6777596 L197.798415,52.4001912 C197.798415,51.3031295 198.001435,50.3349541 198.40748,49.4956359 C198.813525,48.6563176 199.406079,48.0070123 200.185158,47.5477003 C200.964236,47.0883883 201.888554,46.8587358 202.958136,46.8587358 C204.463475,46.8587358 205.651883,47.3263018 206.523395,48.2614477 C207.394907,49.1965936 207.830657,50.5001609 207.830657,52.1721886 L207.830657,53.4708123 L201.195314,53.4708123 C201.314157,54.0722135 201.574946,54.544736 201.97769,54.8883939 C202.380435,55.2320517 202.902013,55.4038781 203.542443,55.4038781 C204.598821,55.4038781 205.424104,55.0337906 206.018317,54.2936044 L207.543455,56.0977992 C207.127506,56.6727652 206.538254,57.1304181 205.775681,57.4707716 C205.013108,57.811125 204.192777,57.9812992 203.314662,57.9812992 Z M202.938329,49.4361569 C201.96118,49.4361569 201.38018,50.0838101 201.195314,51.3791359 L204.562503,51.3791359 L204.562503,51.1213938 C204.575708,50.5860806 204.440361,50.1713843 204.15646,49.8772925 C203.872558,49.5832006 203.466519,49.4361569 202.938329,49.4361569 Z" id="Climate-Change-Servi"></path>
        </g>
    </g>
</svg>