<?xml version="1.0" encoding="utf-8"?>
<!-- Generator: Adobe Illustrator 23.0.6, SVG Export Plug-In . SVG Version: 6.00 Build 0)  -->
<svg version="1.1" id="Layer_1" xmlns="http://www.w3.org/2000/svg" xmlns:xlink="http://www.w3.org/1999/xlink" x="0px" y="0px"
	 viewBox="0 0 240 50" style="enable-background:new 0 0 240 50;" xml:space="preserve">
<style type="text/css">
	.st0{fill-rule:evenodd;clip-rule:evenodd;fill:#77BB11;}
	.st1{fill-rule:evenodd;clip-rule:evenodd;fill:#CCEE66;}
	.st2{fill-rule:evenodd;clip-rule:evenodd;fill:#225511;}
	.st3{fill:#F4CF00;stroke:#F4CF00;stroke-width:0.5;stroke-miterlimit:10;}
</style>
<path id="Forest_Information_System_For_Europe" class="st0" d="M57.3,12.9v11.6h2.8v-4.7h3.7v-2.1h-3.7v-2.6h4.8v-2.2H57.3
	L57.3,12.9z M71.1,12.7c-1,0-2,0.3-3,0.8c-0.9,0.5-1.6,1.2-2.1,2.1c-1,1.9-1,4.3,0,6.1c0.5,0.9,1.2,1.6,2.1,2.1c1.9,1,4.1,1,6,0
	c0.9-0.5,1.6-1.3,2.1-2.1c1-1.9,1-4.3,0-6.1c-0.5-0.9-1.2-1.6-2.1-2.1C73.2,13,72.2,12.7,71.1,12.7L71.1,12.7L71.1,12.7z M71.1,15.3
	c0.9,0,1.6,0.3,2.2,0.9c1.1,1.4,1.1,3.4,0,4.8c-1.2,1.2-3.1,1.2-4.3,0c-1.1-1.4-1.1-3.4,0-4.8C69.5,15.6,70.4,15.3,71.1,15.3
	L71.1,15.3L71.1,15.3z M87.6,24.5l-2.7-4.6c0.8-0.2,1.5-0.6,2-1.2c0.5-0.6,0.7-1.4,0.7-2.1c0-0.7-0.2-1.3-0.5-1.9
	c-0.3-0.6-0.9-1-1.4-1.3c-0.7-0.4-1.4-0.6-2.3-0.6h-4.8v11.6h2.8v-4.3h0.7l2.6,4.3L87.6,24.5L87.6,24.5z M81.4,15.3h1.7
	c0.4,0,0.9,0.1,1.2,0.4c0.3,0.3,0.4,0.7,0.4,1.1s-0.1,0.8-0.4,1.1c-0.3,0.3-0.8,0.4-1.2,0.3h-1.7V15.3z M96.4,15.2v-2.3h-7.2v11.6
	h7.2v-2.2H92v-2.6h3.9v-2.1H92v-2.4H96.4z M106.3,21.2c0-0.7-0.2-1.3-0.5-1.9c-0.3-0.4-0.8-0.9-1.2-1.1c-0.6-0.3-1.2-0.5-1.8-0.8
	c-0.5-0.2-0.9-0.3-1.2-0.4c-0.3-0.1-0.5-0.3-0.7-0.4c-0.2-0.2-0.3-0.4-0.3-0.7s0.1-0.6,0.3-0.8c0.3-0.2,0.5-0.3,0.8-0.3
	c0.3,0,0.7,0.1,0.9,0.3c0.3,0.3,0.4,0.6,0.4,0.9h3.1c-0.1-1-0.5-1.9-1.3-2.6c-0.9-0.7-2-0.9-3.1-0.9c-0.8,0-1.4,0.1-2.1,0.4
	c-0.6,0.3-1.1,0.7-1.4,1.2c-0.7,1.1-0.7,2.5,0,3.6c0.3,0.4,0.7,0.8,1.2,1c0.6,0.3,1.2,0.5,1.8,0.8c0.5,0.2,0.9,0.3,1.2,0.4
	c0.3,0.1,0.5,0.3,0.7,0.5c0.2,0.2,0.3,0.4,0.3,0.8c0,0.3-0.1,0.6-0.3,0.8c-0.3,0.2-0.5,0.3-0.9,0.3c-0.3,0-0.8-0.1-1-0.3
	c-0.3-0.3-0.4-0.7-0.4-1h-3c0,1,0.5,2,1.4,2.6c0.9,0.7,2,1,3.2,0.9c0.8,0,1.5-0.2,2.2-0.4c0.6-0.3,1-0.7,1.4-1.2
	C106.2,22.4,106.3,21.8,106.3,21.2L106.3,21.2L106.3,21.2z M106.9,12.9v2.2h3.1v9.4h2.8v-9.4h3.1v-2.2H106.9z M120.2,12.9v11.6h2.8
	V12.9H120.2z M135.4,12.9h-2.8V20l-4.7-7.1h-2.8v11.6h2.8v-7.1l4.7,7.1h2.8V12.9z M137.5,12.9v11.6h2.8v-4.7h3.7v-2.1h-3.7v-2.6h4.8
	v-2.2H137.5L137.5,12.9z M151.4,12.7c-1,0-2,0.3-3,0.8c-0.9,0.5-1.6,1.2-2.1,2.1c-1,1.9-1,4.3,0,6.1c0.5,0.9,1.2,1.6,2.1,2.1
	c1.9,1,4.1,1,6,0c0.9-0.5,1.6-1.3,2.1-2.1c1-1.9,1-4.3,0-6.1c-0.5-0.9-1.2-1.6-2.1-2.1C153.5,13,152.4,12.7,151.4,12.7L151.4,12.7
	L151.4,12.7z M151.4,15.3c0.9,0,1.6,0.3,2.2,0.9c1.1,1.4,1.1,3.4,0,4.8c-1.2,1.2-3.1,1.2-4.3,0c-1.1-1.4-1.1-3.4,0-4.8
	C149.7,15.6,150.5,15.3,151.4,15.3L151.4,15.3L151.4,15.3z M167.9,24.5l-2.7-4.6c0.8-0.2,1.5-0.6,2-1.2c0.5-0.6,0.7-1.4,0.7-2.1
	c0-0.7-0.2-1.3-0.5-1.9c-0.3-0.6-0.9-1-1.4-1.3c-0.8-0.3-1.5-0.5-2.3-0.5h-4.8v11.6h2.8v-4.3h0.7l2.6,4.3
	C164.9,24.5,167.9,24.5,167.9,24.5z M161.6,15.3h1.7c0.4,0,0.9,0.1,1.2,0.4c0.3,0.3,0.4,0.7,0.4,1.1s-0.1,0.8-0.4,1.1
	c-0.3,0.3-0.8,0.4-1.2,0.3h-1.7V15.3z M179,13l-3.1,8l-3.1-8h-3.4v11.5h2.8v-7.2l2.6,7.2h2.5l2.5-7.2v7.2h2.8V13H179L179,13z
	 M192.1,24.5h3L190.8,13h-3.2l-4.3,11.5h3l0.7-2.1h4.3L192.1,24.5z M187.8,20.3l1.4-4.3l1.4,4.3H187.8z M194.1,12.9v2.2h3.1v9.4h2.8
	v-9.4h3.1v-2.2H194.1z M204.3,12.9v11.6h2.8V12.9H204.3z M214.6,12.7c-1,0-2,0.3-3,0.8c-0.9,0.5-1.6,1.2-2.1,2.1c-1,1.9-1,4.3,0,6.1
	c0.5,0.9,1.2,1.6,2.1,2.1c1.9,1,4.1,1,6,0c0.9-0.5,1.6-1.3,2.1-2.1c1-1.9,1-4.3,0-6.1c-0.5-0.9-1.2-1.6-2.1-2.1
	C216.6,13,215.6,12.7,214.6,12.7L214.6,12.7L214.6,12.7z M214.6,15.3c0.9,0,1.6,0.3,2.2,0.9c1.1,1.4,1.1,3.4,0,4.8
	c-1.2,1.2-3.1,1.2-4.3,0c-1.1-1.4-1.1-3.4,0-4.8C212.9,15.6,213.7,15.3,214.6,15.3L214.6,15.3L214.6,15.3z M232.3,12.9h-2.8V20
	l-4.7-7.1H222v11.6h2.8v-7.1l4.7,7.1h2.8V12.9z M65.6,37.6c0-0.7-0.2-1.3-0.5-1.9c-0.3-0.4-0.8-0.9-1.2-1.1
	c-0.6-0.3-1.2-0.5-1.8-0.8c-0.5-0.2-0.9-0.3-1.2-0.4c-0.3-0.1-0.5-0.3-0.7-0.4c-0.2-0.2-0.3-0.4-0.3-0.7c0-0.3,0.1-0.6,0.3-0.8
	c0.3-0.2,0.5-0.3,0.8-0.3c0.3,0,0.7,0.1,0.9,0.3c0.3,0.3,0.3,0.6,0.4,0.9h3.1c-0.1-1-0.5-1.9-1.3-2.6c-0.9-0.7-2-0.9-3.1-0.9
	c-0.8,0-1.4,0.1-2.1,0.4c-0.6,0.3-1.1,0.7-1.4,1.2c-0.7,1.1-0.7,2.5,0,3.6c0.3,0.4,0.7,0.8,1.2,1c0.6,0.3,1.2,0.5,1.8,0.8
	c0.5,0.2,0.9,0.3,1.2,0.4c0.3,0.1,0.5,0.3,0.7,0.5c0.2,0.2,0.3,0.4,0.3,0.8c0,0.3-0.1,0.6-0.3,0.8c-0.3,0.2-0.5,0.3-0.9,0.3
	c-0.3,0-0.8-0.1-1-0.3c-0.3-0.3-0.4-0.7-0.5-1h-3c0,1,0.5,2,1.4,2.6c0.9,0.7,2,1,3.2,0.9c0.8,0,1.5-0.2,2.2-0.4
	c0.6-0.3,1-0.7,1.4-1.2C65.4,38.8,65.6,38.2,65.6,37.6L65.6,37.6L65.6,37.6z M73.3,29.3l-2.2,4.8l-2.2-4.8h-3.2l4,7.7v3.8h2.8V37
	l4-7.7L73.3,29.3L73.3,29.3z M85.5,37.6c0-0.7-0.2-1.3-0.5-1.9c-0.3-0.4-0.8-0.9-1.2-1.1c-0.6-0.3-1.2-0.5-1.8-0.8
	c-0.5-0.2-0.9-0.3-1.2-0.4c-0.3-0.1-0.5-0.3-0.7-0.4c-0.2-0.2-0.3-0.4-0.3-0.7c0-0.3,0.1-0.6,0.3-0.8c0.3-0.2,0.5-0.3,0.8-0.3
	c0.3,0,0.7,0.1,0.9,0.3c0.3,0.3,0.4,0.6,0.4,0.9h3.1c-0.1-1-0.5-1.9-1.3-2.6c-0.9-0.7-2-0.9-3.1-0.9c-0.8,0-1.4,0.1-2.1,0.4
	c-0.6,0.3-1.1,0.7-1.4,1.2c-0.7,1.1-0.7,2.5,0,3.6c0.3,0.4,0.7,0.8,1.2,1c0.6,0.3,1.2,0.5,1.8,0.8c0.5,0.2,0.9,0.3,1.2,0.4
	c0.3,0.1,0.5,0.3,0.7,0.5c0.2,0.2,0.3,0.4,0.3,0.8c0,0.3-0.1,0.6-0.3,0.8c-0.3,0.2-0.5,0.3-0.9,0.3c-0.3,0-0.8-0.1-1-0.3
	c-0.3-0.3-0.4-0.7-0.4-1h-3c0,1,0.5,2,1.4,2.6c0.9,0.7,2,1,3.2,0.9c0.8,0,1.5-0.2,2.2-0.4c0.6-0.3,1-0.7,1.4-1.2
	C85.3,38.8,85.5,38.2,85.5,37.6L85.5,37.6L85.5,37.6z M86.1,29.3v2.2h3.1v9.4h2.8v-9.4h3.1v-2.2C95.2,29.3,86.1,29.3,86.1,29.3z
	 M103.5,31.5v-2.2h-7.2v11.6h7.2v-2.2H99v-2.6h3.9V34H99v-2.5C99,31.5,103.5,31.5,103.5,31.5z M114.9,29.4l-3.1,8l-3.1-8h-3.4v11.5
	h2.8v-7.2l2.6,7.2h2.5l2.5-7.2v7.2h2.8V29.4H114.9L114.9,29.4z M123.2,29.3v11.6h2.8v-4.7h3.7v-2.1H126v-2.6h4.8v-2.2L123.2,29.3
	L123.2,29.3z M137.1,29.1c-1,0-2,0.3-3,0.8c-0.9,0.5-1.6,1.2-2.1,2.1c-1,1.9-1,4.3,0,6.1c0.5,0.9,1.2,1.6,2.1,2.1c1.9,1,4.1,1,6,0
	c0.9-0.5,1.6-1.3,2.1-2.1c1-1.9,1-4.3,0-6.1c-0.5-0.9-1.2-1.6-2.1-2.1C139.2,29.4,138.2,29.1,137.1,29.1L137.1,29.1L137.1,29.1z
	 M137.1,31.8c0.9,0,1.6,0.3,2.2,0.9c1.1,1.4,1.1,3.4,0,4.8c-1.2,1.2-3.1,1.2-4.3,0c-1.1-1.4-1.1-3.4,0-4.8
	C135.4,32,136.3,31.7,137.1,31.8L137.1,31.8z M153.6,40.9l-2.7-4.6c0.8-0.2,1.5-0.6,2-1.2c0.5-0.6,0.7-1.4,0.7-2.1
	c0-0.7-0.2-1.3-0.5-1.9c-0.3-0.6-0.9-1-1.4-1.3c-0.8-0.3-1.5-0.5-2.3-0.5h-4.8v11.6h2.8v-4.3h0.7l2.6,4.3
	C150.6,40.9,153.6,40.9,153.6,40.9z M147.4,31.7h1.7c0.4,0,0.9,0.1,1.2,0.4c0.3,0.3,0.4,0.7,0.4,1.1s-0.1,0.8-0.4,1.1
	c-0.3,0.3-0.8,0.4-1.2,0.3h-1.7V31.7z M165.1,31.5v-2.2h-7.2v11.6h7.2v-2.2h-4.4v-2.6h3.9V34h-3.9v-2.5
	C160.7,31.5,165.1,31.5,165.1,31.5z M166.8,29.3V36c0,0.9,0.2,1.9,0.6,2.8c0.3,0.7,0.9,1.3,1.7,1.7s1.6,0.6,2.5,0.6s1.7-0.2,2.5-0.6
	c0.8-0.3,1.4-0.9,1.8-1.7c0.4-0.9,0.7-1.8,0.7-2.7v-6.7h-2.9v6.7c0,0.6-0.2,1.3-0.5,1.8c-0.9,0.9-2.1,0.9-3,0
	c-0.3-0.5-0.6-1.1-0.5-1.8v-6.7L166.8,29.3L166.8,29.3z M187.4,40.9l-2.7-4.6c0.8-0.2,1.5-0.6,2-1.2c0.5-0.6,0.7-1.4,0.7-2.1
	c0-0.7-0.2-1.3-0.5-1.9c-0.3-0.6-0.9-1-1.4-1.3c-0.8-0.3-1.5-0.5-2.3-0.5h-4.8v11.6h2.8v-4.3h0.7l2.6,4.3
	C184.4,40.9,187.4,40.9,187.4,40.9z M181.1,31.7h1.7c0.4,0,0.9,0.1,1.2,0.4c0.3,0.3,0.4,0.7,0.4,1.1s-0.1,0.8-0.4,1.1
	c-0.3,0.3-0.8,0.4-1.2,0.3h-1.7V31.7z M194.1,29.1c-1,0-2,0.3-3,0.8c-0.9,0.5-1.6,1.2-2.1,2.1c-1,1.9-1,4.3,0,6.1
	c0.5,0.9,1.2,1.6,2.1,2.1c1.9,1,4.1,1,6,0c0.9-0.5,1.6-1.3,2.1-2.1c1-1.9,1-4.3,0-6.1c-0.5-0.9-1.2-1.6-2.1-2.1
	C196.2,29.4,195.2,29.1,194.1,29.1L194.1,29.1L194.1,29.1z M194.1,31.8c0.9,0,1.6,0.3,2.2,0.9c1.1,1.4,1.1,3.4,0,4.8
	c-1.2,1.2-3.1,1.2-4.3,0c-1.1-1.4-1.1-3.4,0-4.8C192.5,32,193.3,31.7,194.1,31.8L194.1,31.8z M206.1,36.9c0.8,0,1.6-0.2,2.3-0.5
	c0.6-0.3,1.1-0.8,1.4-1.4c0.3-0.6,0.5-1.3,0.5-2c0.1-1-0.3-2-1.1-2.7c-0.9-0.8-2-1.1-3.1-1h-4.5v11.6h2.8v-4.1L206.1,36.9
	L206.1,36.9z M205.8,34.6h-1.4v-3h1.4c1.1,0,1.7,0.5,1.7,1.5S206.9,34.6,205.8,34.6L205.8,34.6L205.8,34.6z M218.8,31.5v-2.2h-7.2
	v11.6h7.2v-2.2h-4.4v-2.6h3.9V34h-3.9v-2.5C214.4,31.5,218.8,31.5,218.8,31.5z"/>
<g>
	<path id="Ellipse_2_copy_7" class="st1" d="M27.9,6c10.6,7.1,14.3,15.8,14.3,23.7S35.8,44,27.9,44s-14.3-6.4-14.3-14.3
		S16.9,12.9,27.9,6z"/>
	<path id="Ellipse_2_copy_9" class="st0" d="M13.5,10.4c12.7-0.8,21,3.9,25.8,10.1c4.8,6.3,3.6,15.2-2.7,20
		c-6.2,4.7-15.1,3.6-19.9-2.6C11.8,31.7,9,22.6,13.5,10.4z"/>
	<path id="Ellipse_2_copy_8" class="st2" d="M5,23.6c9.6-8.4,19-9.7,26.6-7.7s12.1,9.9,10.1,17.5s-9.9,12.1-17.5,10.1l0,0
		C16.6,41.5,8.8,36,5,23.6z"/>
	<g>
		<polygon class="st3" points="23.4,39 23.8,40 22.9,39.3 22,40 22.3,38.9 21.4,38.3 22.5,38.3 22.9,37.3 23.2,38.3 24.3,38.3 		"/>
		<polygon class="st3" points="28.6,40.4 28.9,41.4 28.1,40.7 27.2,41.4 27.5,40.3 26.6,39.7 27.7,39.7 28.1,38.7 28.4,39.7 
			29.5,39.7 		"/>
		<polygon class="st3" points="37.6,35.2 37.9,36.3 37,35.6 36.1,36.2 36.5,35.2 35.6,34.5 36.7,34.5 37,33.5 37.4,34.5 38.4,34.5 
					"/>
		<polygon class="st3" points="33.8,39 34.1,40 33.2,39.3 32.3,40 32.7,38.9 31.8,38.3 32.9,38.3 33.2,37.3 33.6,38.3 34.6,38.3 		
			"/>
		<polygon class="st3" points="19.6,35.2 20,36.3 19.1,35.6 18.2,36.2 18.5,35.2 17.6,34.5 18.7,34.5 19.1,33.5 19.4,34.5 
			20.5,34.5 		"/>
		<polygon class="st3" points="18.2,30 18.6,31.1 17.7,30.4 16.8,31 17.1,30 16.2,29.4 17.3,29.3 17.7,28.3 18,29.3 19.1,29.3 		"/>
		<polygon class="st3" points="23.4,21 23.8,22.1 22.9,21.4 22,22.1 22.3,21 21.4,20.4 22.5,20.4 22.9,19.4 23.2,20.4 24.3,20.4 		
			"/>
		<polygon class="st3" points="19.6,24.8 20,25.9 19.1,25.2 18.2,25.9 18.5,24.8 17.6,24.2 18.7,24.2 19.1,23.1 19.4,24.2 
			20.5,24.2 		"/>
		<polygon class="st3" points="28.6,19.6 28.9,20.7 28.1,20 27.2,20.6 27.5,19.6 26.6,19 27.7,18.9 28.1,17.9 28.4,18.9 29.5,18.9 
					"/>
		<polygon class="st3" points="33.8,21 34.1,22.1 33.2,21.4 32.3,22.1 32.7,21 31.8,20.4 32.9,20.4 33.2,19.4 33.6,20.4 34.6,20.4 
					"/>
		<polygon class="st3" points="39,30 39.3,31.1 38.5,30.4 37.5,31 37.9,30 37,29.4 38.1,29.3 38.5,28.3 38.8,29.3 39.9,29.3 		"/>
		<polygon class="st3" points="37.6,24.8 37.9,25.9 37,25.2 36.1,25.9 36.5,24.8 35.6,24.2 36.7,24.2 37,23.1 37.4,24.2 38.4,24.2 
					"/>
	</g>
</g>
</svg>
