<?xml version="1.0" encoding="UTF-8" standalone="no"?>
<!-- Generator: Adobe Illustrator 23.0.3, SVG Export Plug-In . SVG Version: 6.00 Build 0)  -->

<svg
   version="1.1"
   id="Layer_1"
   x="0px"
   y="0px"
   viewBox="0 0 78.327316 80.027313"
   xml:space="preserve"
   sodipodi:docname="Logo.svg"
   inkscape:version="1.1 (c4e8f9e, 2021-05-24)"
   width="78.327316"
   height="80.027313"
   xmlns:inkscape="http://www.inkscape.org/namespaces/inkscape"
   xmlns:sodipodi="http://sodipodi.sourceforge.net/DTD/sodipodi-0.dtd"
   xmlns="http://www.w3.org/2000/svg"
   xmlns:svg="http://www.w3.org/2000/svg"><defs
   id="defs39" /><sodipodi:namedview
   id="namedview37"
   pagecolor="#ffffff"
   bordercolor="#666666"
   borderopacity="1.0"
   inkscape:pageshadow="2"
   inkscape:pageopacity="0.0"
   inkscape:pagecheckerboard="0"
   showgrid="false"
   inkscape:zoom="3.7317881"
   inkscape:cx="16.480035"
   inkscape:cy="29.61047"
   inkscape:window-width="1296"
   inkscape:window-height="765"
   inkscape:window-x="10"
   inkscape:window-y="25"
   inkscape:window-maximized="0"
   inkscape:current-layer="g34"
   fit-margin-top="0"
   fit-margin-left="0"
   fit-margin-right="0"
   fit-margin-bottom="0" />
<style
   type="text/css"
   id="style2">
	.st0{fill-rule:evenodd;clip-rule:evenodd;fill:#77BB11;}
	.st1{fill-rule:evenodd;clip-rule:evenodd;fill:#CCEE66;}
	.st2{fill-rule:evenodd;clip-rule:evenodd;fill:#225511;}
	.st3{fill:#F4CF00;stroke:#F4CF00;stroke-width:0.5;stroke-miterlimit:10;}
</style>
<g
   id="g34"
   transform="translate(-1,-1)">
	
	<path
   id="Ellipse_2_copy_7"
   class="st1"
   d="M 49.2,1 C 71.5,16 79.3,34.3 79.3,50.9 79.3,67.5 65.8,81 49.2,81 32.6,81 19.1,67.5 19.1,50.9 19.2,34.3 26.1,15.4 49.2,1 Z" />
	<path
   id="Ellipse_2_copy_9"
   class="st0"
   d="M 18.9,10.1 C 45.7,8.4 63,18.3 73.1,31.4 83.2,44.6 80.6,63.5 67.4,73.5 54.3,83.5 35.5,81 25.4,68 15.4,54.9 9.3,35.7 18.9,10.1 Z" />
	<path
   id="Ellipse_2_copy_8"
   class="st2"
   d="M 1,38 C 21.2,20.3 41,17.6 57,21.9 73,26.2 82.6,42.7 78.3,58.7 74,74.7 57.5,84.3 41.5,80 v 0 C 25.4,75.7 9,64.1 1,38 Z" />
	<g
   id="g32">
		<polygon
   class="st3"
   points="35.5,69 37.9,69 38.6,66.8 39.3,69 41.6,69 39.8,70.4 40.5,72.6 38.6,71.2 36.7,72.6 37.4,70.4 "
   id="polygon8" />
		<polygon
   class="st3"
   points="46.5,72 48.8,71.9 49.5,69.8 50.2,71.9 52.5,71.9 50.7,73.3 51.4,75.6 49.5,74.1 47.6,75.5 48.4,73.3 "
   id="polygon10" />
		<polygon
   class="st3"
   points="65.4,61 67.7,61 68.4,58.9 69.1,61 71.4,61 69.6,62.5 70.3,64.7 68.4,63.3 66.5,64.6 67.2,62.4 "
   id="polygon12" />
		<polygon
   class="st3"
   points="57.4,69 59.7,69 60.5,66.8 61.1,69 63.4,69 61.6,70.4 62.4,72.6 60.5,71.2 58.5,72.6 59.2,70.4 "
   id="polygon14" />
		<polygon
   class="st3"
   points="27.6,61 29.9,61 30.6,58.9 31.3,61 33.6,61 31.8,62.5 32.5,64.7 30.6,63.3 28.7,64.6 29.4,62.4 "
   id="polygon16" />
		<polygon
   class="st3"
   points="24.7,50.2 26.9,50.1 27.7,47.9 28.4,50.1 30.6,50.1 28.8,51.5 29.6,53.7 27.7,52.3 25.8,53.7 26.5,51.5 "
   id="polygon18" />
		<polygon
   class="st3"
   points="35.5,31.3 37.9,31.3 38.6,29.1 39.3,31.3 41.6,31.3 39.8,32.6 40.5,34.9 38.6,33.4 36.7,34.9 37.4,32.6 "
   id="polygon20" />
		<polygon
   class="st3"
   points="27.6,39.2 29.9,39.2 30.6,37.1 31.3,39.2 33.6,39.2 31.8,40.6 32.5,42.8 30.6,41.4 28.7,42.8 29.4,40.6 "
   id="polygon22" />
		<polygon
   class="st3"
   points="46.5,28.3 48.8,28.2 49.5,26.1 50.2,28.2 52.5,28.2 50.7,29.6 51.4,31.9 49.5,30.4 47.6,31.8 48.4,29.6 "
   id="polygon24" />
		<polygon
   class="st3"
   points="57.4,31.3 59.7,31.3 60.5,29.1 61.1,31.3 63.4,31.3 61.6,32.6 62.4,34.9 60.5,33.4 58.5,34.9 59.2,32.6 "
   id="polygon26" />
		<polygon
   class="st3"
   points="68.4,50.2 70.7,50.1 71.5,47.9 72.1,50.1 74.4,50.1 72.6,51.5 73.3,53.7 71.5,52.3 69.5,53.7 70.2,51.5 "
   id="polygon28" />
		<polygon
   class="st3"
   points="65.4,39.2 67.7,39.2 68.4,37.1 69.1,39.2 71.4,39.2 69.6,40.6 70.3,42.8 68.4,41.4 66.5,42.8 67.2,40.6 "
   id="polygon30" />
	</g>
</g>
</svg>
