<?xml version="1.0" encoding="UTF-8" standalone="no"?>
<!-- Generator: Adobe Illustrator 23.0.6, SVG Export Plug-In . SVG Version: 6.00 Build 0)  -->

<svg
   version="1.1"
   id="Layer_1"
   x="0px"
   y="0px"
   viewBox="0 0 37.24036 38"
   xml:space="preserve"
   sodipodi:docname="Logo-sm.svg"
   width="37.24036"
   height="38"
   inkscape:version="1.1 (c4e8f9e, 2021-05-24)"
   xmlns:inkscape="http://www.inkscape.org/namespaces/inkscape"
   xmlns:sodipodi="http://sodipodi.sourceforge.net/DTD/sodipodi-0.dtd"
   xmlns="http://www.w3.org/2000/svg"
   xmlns:svg="http://www.w3.org/2000/svg"><defs
   id="defs874" /><sodipodi:namedview
   id="namedview872"
   pagecolor="#ffffff"
   bordercolor="#666666"
   borderopacity="1.0"
   inkscape:pageshadow="2"
   inkscape:pageopacity="0.0"
   inkscape:pagecheckerboard="0"
   showgrid="false"
   fit-margin-top="0"
   fit-margin-left="0"
   fit-margin-right="0"
   fit-margin-bottom="0"
   inkscape:zoom="4.6958333"
   inkscape:cx="4.5785271"
   inkscape:cy="15.226264"
   inkscape:window-width="1296"
   inkscape:window-height="765"
   inkscape:window-x="0"
   inkscape:window-y="25"
   inkscape:window-maximized="0"
   inkscape:current-layer="Layer_1" />
<style
   type="text/css"
   id="style837">
	.st0{fill-rule:evenodd;clip-rule:evenodd;fill:#77BB11;}
	.st1{fill-rule:evenodd;clip-rule:evenodd;fill:#CCEE66;}
	.st2{fill-rule:evenodd;clip-rule:evenodd;fill:#225511;}
	.st3{fill:#F4CF00;stroke:#F4CF00;stroke-width:0.5;stroke-miterlimit:10;}
</style>

<g
   id="g869"
   transform="translate(-5,-6)">
	<path
   id="Ellipse_2_copy_7"
   class="st1"
   d="M 27.9,6 C 38.5,13.1 42.2,21.8 42.2,29.7 42.2,37.6 35.8,44 27.9,44 20,44 13.6,37.6 13.6,29.7 13.6,21.8 16.9,12.9 27.9,6 Z" />
	<path
   id="Ellipse_2_copy_9"
   class="st0"
   d="m 13.5,10.4 c 12.7,-0.8 21,3.9 25.8,10.1 4.8,6.3 3.6,15.2 -2.7,20 C 30.4,45.2 21.5,44.1 16.7,37.9 11.8,31.7 9,22.6 13.5,10.4 Z" />
	<path
   id="Ellipse_2_copy_8"
   class="st2"
   d="m 5,23.6 c 9.6,-8.4 19,-9.7 26.6,-7.7 7.6,2 12.1,9.9 10.1,17.5 -2,7.6 -9.9,12.1 -17.5,10.1 v 0 C 16.6,41.5 8.8,36 5,23.6 Z" />
	<g
   id="g867">
		<polygon
   class="st3"
   points="22.9,39.3 22,40 22.3,38.9 21.4,38.3 22.5,38.3 22.9,37.3 23.2,38.3 24.3,38.3 23.4,39 23.8,40 "
   id="polygon843" />
		<polygon
   class="st3"
   points="28.1,40.7 27.2,41.4 27.5,40.3 26.6,39.7 27.7,39.7 28.1,38.7 28.4,39.7 29.5,39.7 28.6,40.4 28.9,41.4 "
   id="polygon845" />
		<polygon
   class="st3"
   points="37,35.6 36.1,36.2 36.5,35.2 35.6,34.5 36.7,34.5 37,33.5 37.4,34.5 38.4,34.5 37.6,35.2 37.9,36.3 "
   id="polygon847" />
		<polygon
   class="st3"
   points="33.2,39.3 32.3,40 32.7,38.9 31.8,38.3 32.9,38.3 33.2,37.3 33.6,38.3 34.6,38.3 33.8,39 34.1,40 "
   id="polygon849" />
		<polygon
   class="st3"
   points="19.1,35.6 18.2,36.2 18.5,35.2 17.6,34.5 18.7,34.5 19.1,33.5 19.4,34.5 20.5,34.5 19.6,35.2 20,36.3 "
   id="polygon851" />
		<polygon
   class="st3"
   points="17.7,30.4 16.8,31 17.1,30 16.2,29.4 17.3,29.3 17.7,28.3 18,29.3 19.1,29.3 18.2,30 18.6,31.1 "
   id="polygon853" />
		<polygon
   class="st3"
   points="22.9,21.4 22,22.1 22.3,21 21.4,20.4 22.5,20.4 22.9,19.4 23.2,20.4 24.3,20.4 23.4,21 23.8,22.1 "
   id="polygon855" />
		<polygon
   class="st3"
   points="19.1,25.2 18.2,25.9 18.5,24.8 17.6,24.2 18.7,24.2 19.1,23.1 19.4,24.2 20.5,24.2 19.6,24.8 20,25.9 "
   id="polygon857" />
		<polygon
   class="st3"
   points="28.1,20 27.2,20.6 27.5,19.6 26.6,19 27.7,18.9 28.1,17.9 28.4,18.9 29.5,18.9 28.6,19.6 28.9,20.7 "
   id="polygon859" />
		<polygon
   class="st3"
   points="33.2,21.4 32.3,22.1 32.7,21 31.8,20.4 32.9,20.4 33.2,19.4 33.6,20.4 34.6,20.4 33.8,21 34.1,22.1 "
   id="polygon861" />
		<polygon
   class="st3"
   points="38.5,30.4 37.5,31 37.9,30 37,29.4 38.1,29.3 38.5,28.3 38.8,29.3 39.9,29.3 39,30 39.3,31.1 "
   id="polygon863" />
		<polygon
   class="st3"
   points="37,25.2 36.1,25.9 36.5,24.8 35.6,24.2 36.7,24.2 37,23.1 37.4,24.2 38.4,24.2 37.6,24.8 37.9,25.9 "
   id="polygon865" />
	</g>
</g>
</svg>
